PathFileType	4	(X/Y/Z)	C:\Users\°ÂÌØÂü\Desktop\20210112\bx_n_5_502-Unnamed.trc
DataRate	CameraRate	NumFrames	NumMarkers	Units	OrigDataRate	OrigDataStartFrame	OrigNumFrames
50.00	50.00	       8	0	mm	50.00	184	       489
Frame#	Time	
		

184	3.660	-620.83746	298.15598	1515.14685	-671.11774	253.23213	1065.79822	-577.20673	115.72140	1322.00134	-756.91223	291.09354	876.73608	-646.75964	-2.47174	810.63123				-755.62909	280.62613	745.69659	-777.19720	261.15744	641.73914	-724.91675	78.25222	573.51624	-694.46515	18.79310	524.77655	-773.31329	257.17166	574.73474	-714.82043	217.07230	539.23077	-652.72626	238.41867	798.01807	-716.98553	158.87131	221.70209	-771.91919	232.67418	203.22203	-882.49652	296.18716	144.75172	-674.99774	51.88677	161.64070	-677.52100	175.22852	162.69330	-595.03937	219.94934	174.77628	-659.52869	298.01425	157.06493	-623.75958	306.21170	158.06139	-558.82141	255.14882	163.87154	-527.94513	304.56732	146.74106	-596.76184	117.86681	1823.45959	-609.66058	-59.08720	1511.88721	-805.85687	266.11227	497.57144	-517.90961	-72.87302	143.22429	-549.11920	-23.67077	162.46774	-733.39862	155.01163	577.97864	-660.80768	6.67424	1051.24072	-794.09943	35.73132	173.18420	-798.24323	183.04715	182.74287	-785.00177	-41.33358	487.76910	-600.95605	27.00124	168.70439	-761.09930	-22.01892	206.73528	-875.95648	-78.79716	141.44162	-862.88440	103.35142	1070.06836	-749.87946	-28.25549	571.21503	-605.58649	-72.86532	157.87906	-648.29077	-68.43056	161.46744	-741.06396	-53.65173	761.95801	-721.44458	67.56203	218.82117							-729.66583	-61.88435	878.35675	-747.26941	-29.61113	618.28906	
185	3.680	-627.85162	298.61292	1518.85779	-668.55872	253.04254	1066.40674	-580.50159	115.78267	1326.08057	-753.93298	291.58707	876.90271	-643.50830	-3.17744	811.72900				-753.09296	280.44733	745.45331	-774.78882	260.49252	641.51263	-722.59033	77.74032	573.19818	-692.48822	18.65375	524.79205	-771.97113	257.25711	574.94232	-713.11816	216.85585	539.47638	-649.85229	238.37668	797.50616	-716.89185	158.84084	221.79660	-771.76074	232.48270	203.15379	-882.49231	296.34213	144.90112	-674.99774	51.88677	161.64070	-677.09344	175.29192	162.58662	-594.92932	219.93169	174.78415	-659.80060	298.42831	156.69255	-623.72253	306.29935	158.15108	-558.53772	254.94115	164.04327	-527.86566	304.25372	146.80635	-606.88696	117.59222	1826.87036	-616.89355	-59.09766	1514.97424	-804.59796	266.11609	498.29837	-517.90961	-72.87302	143.22429	-549.24799	-23.96991	162.35443	-731.11914	154.77521	578.45471	-657.95459	6.06187	1051.77332	-793.86328	35.80504	173.41408	-798.12817	183.00584	182.77351	-783.65405	-41.15614	488.04462	-600.83325	26.92177	168.53857	-760.96466	-22.10298	207.17783	-875.87097	-78.64214	141.18979	-859.95453	103.62354	1069.37305	-747.92566	-27.25834	570.83228	-605.59351	-72.85020	157.95889	-648.32977	-68.42435	161.37775	-739.57062	-52.79473	761.86340	-721.05847	67.69041	218.28592							-726.77533	-61.19646	878.11285	-744.97089	-29.07266	618.65997	
186	3.700	-634.22516	298.88574	1521.91333	-665.94409	253.50758	1066.82617	-583.50964	116.22512	1329.63586	-750.44275	291.61935	876.82098	-640.85730	-2.45648	811.11761				-750.33612	280.76077	745.65869	-772.92029	260.94345	641.69177	-720.55219	78.71156	573.44189	-690.79187	19.06572	524.83826	-769.86145	257.25656	575.27893	-711.50043	217.24043	539.40979	-646.81683	238.42697	797.19159	-716.95972	158.86038	221.30675	-771.70801	232.52718	203.18022	-882.45593	296.22400	144.77756	-674.99774	51.88677	161.64070	-677.00299	175.24042	162.82790	-595.09698	220.04912	174.92537	-659.59277	298.15265	156.83998	-623.74091	306.13846	157.95375	-558.54663	255.27151	164.03174	-527.90155	304.19394	146.70193	-616.53839	117.13266	1829.93091	-623.54333	-59.76319	1518.65735	-803.03210	266.12018	498.42566	-517.84009	-73.05891	143.16542	-549.20770	-24.06291	162.24498	-729.52997	155.20279	578.01208	-655.10400	6.45299	1052.41113	-793.92596	36.00381	173.49965	-798.10291	182.81761	182.81227	-782.26093	-40.82560	488.26062	-600.67059	26.88461	168.74911	-760.82672	-21.99121	207.32234	-875.87097	-78.64214	141.18979	-857.48041	104.54204	1068.31140	-745.46472	-27.34200	571.31537	-605.40179	-73.07442	157.96396	-648.26117	-68.48917	161.44363	-737.11383	-52.15205	761.56049	-720.87134	67.78377	218.21918							-724.33881	-61.13968	878.52264	-743.42542	-28.67446	618.31781	
187	3.720	-641.00964	298.77847	1524.65576	-662.45917	253.27905	1067.36584	-586.62238	116.60277	1332.81592	-747.26038	291.98700	876.78204	-637.64636	-2.79775	811.77789				-747.58569	280.30731	745.48810	-770.85870	261.28220	642.36353	-718.38220	78.76533	573.57690	-689.11420	18.91192	524.75323	-767.77332	257.86081	575.55902	-709.49750	216.99228	539.21851	-643.82788	237.85703	797.37677	-716.74054	158.89131	221.29094	-771.22913	232.04410	203.23114	-882.47003	296.16614	144.83304	-674.86359	51.71690	161.62001	-676.87903	175.16605	162.51497	-594.82574	219.78006	174.74686	-659.60266	298.08408	156.94138	-623.76349	306.25089	158.11473	-558.51886	255.29366	164.05775	-527.94342	304.18921	146.79910	-626.21198	116.90544	1832.60474	-630.85785	-59.65083	1520.75159	-801.73096	266.01563	498.67639	-517.90961	-72.87302	143.22429	-549.18976	-23.90944	162.33006	-727.52478	155.52145	577.92633	-652.69397	6.21789	1053.42297	-793.82001	36.00335	173.54071	-797.96350	182.79466	182.78571	-780.46356	-40.50687	488.80176	-600.45612	27.04930	168.75154	-760.70300	-21.91319	207.28084	-875.83813	-78.74426	141.16963	-854.81708	105.13638	1067.57739	-743.03992	-27.28255	571.82837	-605.59692	-73.21195	158.03662	-648.42346	-68.46444	161.26971	-734.71979	-52.14241	761.74304	-720.87134	67.78377	218.21918							-720.98071	-60.67354	878.33032	-741.55133	-28.77534	618.72382	
188	3.740	-647.60773	299.01758	1527.16418	-659.93549	253.50467	1067.77100	-589.62939	116.82218	1336.30188	-743.93683	292.30380	876.77966	-634.92407	-2.23089	811.35492				-744.54291	280.22980	745.81628	-768.17645	261.05634	642.33447	-715.68542	78.92236	573.69281	-687.48956	19.27214	524.57233	-765.82843	257.66919	575.78015	-708.19171	216.95641	538.76904	-640.89343	238.36009	797.59753	-716.65112	158.85086	221.37486	-771.32068	232.23807	203.28500	-882.47290	296.27444	144.85796	-674.86359	51.71690	161.62001	-677.00012	175.13881	162.68134	-594.80347	219.86710	174.68307	-659.74738	298.27460	156.82469	-623.68445	306.37204	158.18413	-558.51886	255.29366	164.05775	-527.98999	304.32031	146.61378	-635.09100	117.15536	1835.27588	-637.47638	-59.46975	1522.95764	-800.01788	266.23947	499.15466	-517.88947	-72.94445	143.28894	-549.20734	-23.95414	162.36906	-725.02570	155.18665	578.29132	-650.30664	6.67859	1054.35376	-793.63770	36.24387	173.72717	-797.85901	183.02193	183.10103	-779.15680	-40.25188	488.79773	-600.49231	26.96776	168.89629	-761.03473	-21.69483	207.50212	-876.00275	-78.74174	141.50209	-852.18884	105.50098	1066.58875	-741.60211	-27.18194	571.45245	-605.45441	-73.02473	158.04997	-648.29590	-68.52879	161.46353	-732.18500	-51.48303	762.01007	-720.65540	67.73368	218.22095							-718.16296	-60.37402	878.43604	-739.30713	-27.88053	618.59247	
189	3.760	-654.06390	299.03223	1529.25549	-658.22168	254.21590	1068.11426	-592.57501	116.98522	1339.35791	-740.66382	292.78839	877.13165	-632.30383	-1.70756	811.36908				-742.26807	280.46564	746.00586	-765.95435	261.71378	642.52356	-714.09991	79.41541	573.42609	-685.54211	19.58400	524.48181	-764.00507	257.49606	575.55609	-706.33710	217.03441	538.81714	-637.93835	238.23206	797.44916	-716.62109	158.92659	221.22099	-771.33704	232.18600	203.46292	-882.47034	296.07187	144.68552	-674.99774	51.88677	161.64070	-676.75433	175.06955	162.23405	-594.72998	219.92824	175.08392	-659.95905	298.56165	156.62878	-623.66705	306.28336	158.06033	-558.35101	255.27803	163.90402	-527.95410	304.38010	146.71820	-644.15405	116.34533	1837.53271	-644.05920	-59.42787	1525.32788	-798.22113	266.24030	499.09036	-517.89899	-73.12276	143.05435	-549.23108	-23.93962	162.41524	-723.40057	155.77393	578.30591	-647.79224	6.31667	1055.42676	-793.50427	36.48763	173.76468	-797.33289	182.67480	183.25264	-777.81598	-40.02995	489.14136	-600.34595	27.22506	168.61435	-760.82611	-21.66422	207.59584	-875.87335	-78.57735	141.34627	-850.02118	105.79678	1065.74573	-739.83063	-27.11226	571.58868	-605.33411	-72.80905	157.69649	-648.39392	-68.42310	161.48576	-729.27252	-51.32659	762.26624	-720.65540	67.73368	218.22095							-715.11755	-60.50951	878.88263	-736.99756	-27.82837	618.77429	
190	3.780	-660.26892	298.99731	1531.17139				-595.69098	116.92762	1341.82605	-737.44965	292.70386	876.83380	-629.69476	-1.91724	811.35040	-652.36755	253.11272	1069.29529	-739.12189	280.01578	745.92358	-763.59888	261.90640	642.89734	-712.41687	79.41029	573.58044	-684.23468	19.58891	524.42358	-762.43738	257.73242	575.79260	-704.80212	217.11639	538.60870	-635.09216	238.18071	797.43481	-716.28381	158.89018	221.20566	-771.18549	232.21498	203.45168	-882.48456	296.10822	144.64120	-674.72760	51.59531	161.51840	-676.54407	175.06854	162.20769	-594.77197	219.84192	174.89900	-659.93170	298.68033	156.38286	-623.68445	306.37204	158.18413	-558.34235	255.23643	163.80878	-527.93011	304.26700	146.76915	-652.80231	115.99522	1839.34375	-650.86487	-59.41505	1526.80811	-796.97241	266.59198	499.61264	-517.90961	-72.87302	143.22429	-549.10492	-24.04400	162.21252	-721.82190	156.22047	578.11157				-793.46606	36.42044	173.80354	-797.38098	182.75983	183.20024	-776.35938	-39.52441	489.29987	-600.42273	27.17240	168.58582	-760.70233	-21.58624	207.55432	-875.99792	-78.69180	141.55168	-847.37970	106.44540	1064.80103	-737.68646	-26.50643	571.70636	-605.45905	-72.98381	157.90817	-648.26111	-68.46764	161.49971	-726.70422	-51.04080	762.32239	-720.59558	67.86834	217.89749							-712.41705	-60.01973	878.67267	-734.55573	-28.56751	619.38916	
191	3.800	-666.58636	299.09778	1533.19409				-598.56781	117.47050	1344.26208	-734.28467	292.79980	876.73108	-626.74365	-1.66798	811.29205				-736.70941	280.39349	746.47620	-761.68982	262.08652	643.16956	-710.02362	79.45568	573.77722	-682.48584	19.86015	523.68457	-760.46246	257.62851	576.10596	-703.32538	217.29616	538.76221	-632.33716	238.26437	797.87610	-716.26349	158.95805	221.26785	-771.10022	232.14346	203.54181	-882.50659	296.28424	144.83293	-674.86475	51.79808	161.57513	-676.54407	175.06854	162.20769	-594.56219	219.95816	174.76299	-659.87842	298.52667	156.51503	-623.59332	306.52026	158.10844	-558.23492	255.31749	163.90062	-527.88824	304.27173	146.67198	-661.27179	116.02132	1840.94275	-656.94836	-59.75433	1528.88513	-795.22894	266.66315	499.61826	-517.84332	-72.91659	142.98094	-549.15094	-24.10474	162.06094	-719.27985	155.94405	578.72095				-793.31232	36.54865	173.62544	-797.27942	182.78595	183.12622	-774.83234	-39.14298	489.43497	-600.44928	26.95399	168.81741	-760.67401	-21.66921	207.54283	-875.99792	-78.69180	141.55168	-845.10297	106.33316	1064.18225	-736.49786	-26.66875	571.78912	-605.65930	-73.17545	158.01376	-648.33533	-68.46631	161.50740	-724.32434	-50.59753	762.06726	-720.56219	68.12925	217.55522							-709.55487	-60.36364	879.13812	-732.98126	-28.22268	619.24695	
